<?xml version="1.0" encoding="UTF-8" standalone="no"?>
<svg
   xmlns:dc="http://purl.org/dc/elements/1.1/"
   xmlns:cc="http://creativecommons.org/ns#"
   xmlns:rdf="http://www.w3.org/1999/02/22-rdf-syntax-ns#"
   xmlns:svg="http://www.w3.org/2000/svg"
   xmlns="http://www.w3.org/2000/svg"
   xmlns:sodipodi="http://sodipodi.sourceforge.net/DTD/sodipodi-0.dtd"
   xmlns:inkscape="http://www.inkscape.org/namespaces/inkscape"
   version="1.1"
   width="36"
   height="36"
   viewBox="0 0 36 36"
   preserveAspectRatio="xMidYMid meet"
   id="svg10"
   sodipodi:docname="bleachbit-icon.svg"
   inkscape:version="0.92.4 (fd57863, 2020-04-02)">
  <metadata
     id="metadata16">
    <rdf:RDF>
      <cc:Work
         rdf:about="">
        <dc:format>image/svg+xml</dc:format>
        <dc:type
           rdf:resource="http://purl.org/dc/dcmitype/StillImage" />
      </cc:Work>
    </rdf:RDF>
  </metadata>
  <defs
     id="defs14" />
  <sodipodi:namedview
     pagecolor="#ffffff"
     bordercolor="#666666"
     borderopacity="1"
     objecttolerance="10"
     gridtolerance="10"
     guidetolerance="10"
     inkscape:pageopacity="0"
     inkscape:pageshadow="2"
     inkscape:window-width="1860"
     inkscape:window-height="1016"
     id="namedview12"
     showgrid="false"
     inkscape:zoom="18.541911"
     inkscape:cx="28.816603"
     inkscape:cy="20.865723"
     inkscape:window-x="60"
     inkscape:window-y="27"
     inkscape:window-maximized="1"
     inkscape:current-layer="svg10" />
  <title
     id="title2">trash-solid</title>
  <path
     class="clr-i-solid clr-i-solid-path-1"
     d="M6,9V31a2.93,2.93,0,0,0,2.86,3H27.09A2.93,2.93,0,0,0,30,31V9Zm9,20H13V14h2Zm8,0H21V14h2Z"
     id="path4"
     style="fill:#ffffff;fill-opacity:1" />
  <path
     class="clr-i-solid clr-i-solid-path-2"
     d="M30.73,5H23V4A2,2,0,0,0,21,2h-6.2A2,2,0,0,0,13,4V5H5A1,1,0,1,0,5,7H30.73a1,1,0,0,0,0-2Z"
     id="path6"
     style="fill:#ffffff;fill-opacity:1" />
  <rect
     x="0"
     y="0"
     width="36"
     height="36"
     fill-opacity="0"
     id="rect8" />
</svg>
